<?xml version="1.0" standalone="no"?>
<!DOCTYPE svg PUBLIC "-//W3C//DTD SVG 20010904//EN"
 "http://www.w3.org/TR/2001/REC-SVG-20010904/DTD/svg10.dtd">
<svg version="1.0" xmlns="http://www.w3.org/2000/svg"
 width="512.000000pt" height="512.000000pt" viewBox="0 0 512.000000 512.000000"
 preserveAspectRatio="xMidYMid meet">
<metadata>
Created by potrace 1.11, written by Peter Selinger 2001-2013
</metadata>
<g transform="translate(0.000000,512.000000) scale(0.100000,-0.100000)"
fill="#000000" stroke="none">
<path d="M2440 5104 c-264 -70 -468 -338 -534 -705 -23 -130 -29 -244 -17
-358 6 -57 9 -106 7 -108 -2 -2 -32 8 -67 22 -444 187 -956 92 -1296 -243
-103 -101 -171 -191 -231 -310 -95 -185 -133 -343 -133 -553 0 -199 48 -401
114 -475 90 -104 256 -107 348 -7 15 15 50 75 77 133 83 172 189 281 347 356
63 31 175 68 175 59 0 -2 -18 -47 -39 -101 -154 -388 -178 -861 -65 -1257 l25
-89 -85 -80 c-101 -94 -188 -219 -233 -333 -130 -332 -57 -723 181 -961 55
-55 81 -73 119 -84 110 -30 226 22 279 124 15 30 22 69 28 162 6 106 11 130
38 187 33 71 94 144 148 177 l33 21 93 -71 c162 -122 386 -220 586 -256 113
-20 331 -20 444 0 200 36 424 134 586 256 l93 71 33 -21 c54 -33 115 -106 148
-177 27 -57 32 -82 38 -182 10 -168 42 -228 145 -277 102 -48 182 -28 281 70
237 237 311 625 182 960 -43 112 -133 240 -234 334 l-85 80 25 89 c113 400 89
867 -65 1257 -21 54 -39 99 -39 101 0 9 112 -28 175 -59 158 -75 264 -184 347
-356 77 -161 130 -204 248 -204 94 0 169 44 211 126 70 137 100 435 65 638
-76 429 -389 791 -804 930 -273 91 -572 79 -841 -35 -35 -14 -65 -24 -67 -22
-2 2 1 51 7 108 23 219 -24 485 -118 674 -151 302 -418 456 -673 389z"/>
</g>
</svg>
