<?xml version="1.0" encoding="iso-8859-1"?>
<!-- Generator: Adobe Illustrator 18.0.0, SVG Export Plug-In . SVG Version: 6.00 Build 0)  -->
<!DOCTYPE svg PUBLIC "-//W3C//DTD SVG 1.1//EN" "http://www.w3.org/Graphics/SVG/1.1/DTD/svg11.dtd">
<svg version="1.1" id="Capa_1" xmlns="http://www.w3.org/2000/svg" xmlns:xlink="http://www.w3.org/1999/xlink" x="0px" y="0px"
	 viewBox="0 0 64.271 64.271" width="16" height="16"style="enable-background:new 0 0 64.271 64.271;" xml:space="preserve">
<path style="fill:#231F20;" d="M47.138,13.401c-2.423,0-4.707,0.589-6.737,1.61c0.151-0.92,0.24-1.879,0.24-2.874
	C40.641,5.331,36.905,0,32.135,0S23.63,5.331,23.63,12.137c0,0.995,0.089,1.954,0.24,2.874c-2.03-1.021-4.314-1.61-6.737-1.61
	c-8.309,0-15.067,6.759-15.067,15.067c0,1.699,0.296,3.395,0.879,5.038c0.424,1.197,1.557,1.997,2.826,1.997h0.001
	c1.27,0,2.401-0.799,2.827-1.995c1.096-3.086,3.763-5.3,6.9-5.88c-1.453,3.112-2.279,6.675-2.279,10.458
	c0,2.751,0.441,5.383,1.238,7.813c-4.425,3.157-6.143,9.119-3.789,14.235c0.547,1.188,1.297,2.275,2.229,3.231
	c0.577,0.592,1.356,0.905,2.148,0.905c0.424,0,0.852-0.09,1.254-0.274c1.152-0.531,1.847-1.73,1.733-2.994
	c-0.196-2.175,0.913-4.242,2.779-5.31c3.159,2.754,7.08,4.387,11.324,4.387c4.244,0,8.165-1.633,11.324-4.387
	c1.865,1.068,2.975,3.135,2.779,5.311c-0.113,1.264,0.581,2.463,1.733,2.994c0.402,0.185,0.83,0.274,1.254,0.274
	c0.792,0,1.571-0.313,2.148-0.905c0.931-0.953,1.68-2.04,2.229-3.231c2.354-5.116,0.636-11.077-3.789-14.235
	c0.797-2.43,1.238-5.062,1.238-7.813c0-3.783-0.826-7.346-2.28-10.459c3.137,0.58,5.804,2.795,6.9,5.88
	c0.426,1.196,1.558,1.995,2.827,1.995H58.5c1.27,0,2.402-0.8,2.826-1.997c0.583-1.644,0.879-3.339,0.879-5.038
	C62.206,20.16,55.447,13.401,47.138,13.401z"/>
<g>
</g>
<g>
</g>
<g>
</g>
<g>
</g>
<g>
</g>
<g>
</g>
<g>
</g>
<g>
</g>
<g>
</g>
<g>
</g>
<g>
</g>
<g>
</g>
<g>
</g>
<g>
</g>
<g>
</g>
</svg>
